HIERARCHY
ROOT mixamorig:Hips
{
	OFFSET 0.000000 201.639420 0.000000
	CHANNELS 6 Xposition Yposition Zposition Xrotation Yrotation Zrotation
	JOINT mixamorig:Spine
	{
		OFFSET 0.006200 19.524994 -2.481800
		CHANNELS 3 Xrotation Yrotation Zrotation
		JOINT mixamorig:Spine1
		{
			OFFSET -0.000900 22.835007 -2.825400
			CHANNELS 3 Xrotation Yrotation Zrotation
			JOINT mixamorig:Spine2
			{
				OFFSET -0.020600 26.552490 -3.193300
				CHANNELS 3 Xrotation Yrotation Zrotation
				JOINT mixamorig:Neck
				{
					OFFSET -0.060000 30.701813 1.352200
					CHANNELS 3 Xrotation Yrotation Zrotation
					JOINT mixamorig:Head
					{
						OFFSET -0.087200 22.547607 3.670900
						CHANNELS 3 Xrotation Yrotation Zrotation
						JOINT mixamorig:HeadTop_End
						{
							OFFSET -0.830600 40.355194 7.893500
							CHANNELS 3 Xrotation Yrotation Zrotation
							End Site
							{
								OFFSET 0.000000 30.592346 0.000000
							}
						}
						JOINT mixamorig:RightEye
						{
							OFFSET -6.302100 18.118591 16.197100
							CHANNELS 3 Xrotation Yrotation Zrotation
							End Site
							{
								OFFSET 0.000000 30.592346 0.000000
							}
						}
						JOINT mixamorig:LeftEye
						{
							OFFSET 6.741500 18.382690 16.401899
							CHANNELS 3 Xrotation Yrotation Zrotation
							End Site
							{
								OFFSET 0.000000 30.592346 0.000000
							}
						}
					}
				}
				JOINT mixamorig:LeftShoulder
				{
					OFFSET 11.924900 18.230499 1.425400
					CHANNELS 3 Xrotation Yrotation Zrotation
					JOINT mixamorig:LeftArm
					{
						OFFSET 25.435989 -0.697632 -5.229300
						CHANNELS 3 Xrotation Yrotation Zrotation
						JOINT mixamorig:LeftForeArm
						{
							OFFSET 54.684776 0.000000 0.000000
							CHANNELS 3 Xrotation Yrotation Zrotation
							JOINT mixamorig:LeftHand
							{
								OFFSET 55.098175 0.000000 0.000000
								CHANNELS 3 Xrotation Yrotation Zrotation
								JOINT mixamorig:LeftHandMiddle1
								{
									OFFSET 23.369751 0.000000 0.000000
									CHANNELS 3 Xrotation Yrotation Zrotation
									JOINT mixamorig:LeftHandMiddle2
									{
										OFFSET 6.378677 0.000000 0.000000
										CHANNELS 3 Xrotation Yrotation Zrotation
										JOINT mixamorig:LeftHandMiddle3
										{
											OFFSET 6.148331 0.000000 0.000000
											CHANNELS 3 Xrotation Yrotation Zrotation
											JOINT mixamorig:LeftHandMiddle4
											{
												OFFSET 6.582504 0.000000 0.000000
												CHANNELS 3 Xrotation Yrotation Zrotation
												End Site
												{
													OFFSET -1.168900 6.395691 1.028606
												}
											}
										}
									}
								}
								JOINT mixamorig:LeftHandThumb1
								{
									OFFSET 7.235672 -3.848206 5.434273
									CHANNELS 3 Xrotation Yrotation Zrotation
									JOINT mixamorig:LeftHandThumb2
									{
										OFFSET 6.568451 -3.792297 3.792300
										CHANNELS 3 Xrotation Yrotation Zrotation
										JOINT mixamorig:LeftHandThumb3
										{
											OFFSET 6.063080 -3.500519 3.500518
											CHANNELS 3 Xrotation Yrotation Zrotation
											JOINT mixamorig:LeftHandThumb4
											{
												OFFSET 4.793182 -2.767334 2.767349
												CHANNELS 3 Xrotation Yrotation Zrotation
												End Site
												{
													OFFSET 0.101639 6.054260 1.275483
												}
											}
										}
									}
								}
								JOINT mixamorig:LeftHandIndex1
								{
									OFFSET 23.101074 -0.309540 4.992809
									CHANNELS 3 Xrotation Yrotation Zrotation
									JOINT mixamorig:LeftHandIndex2
									{
										OFFSET 6.226883 0.000000 0.000000
										CHANNELS 3 Xrotation Yrotation Zrotation
										JOINT mixamorig:LeftHandIndex3
										{
											OFFSET 6.094330 0.000000 0.000000
											CHANNELS 3 Xrotation Yrotation Zrotation
											JOINT mixamorig:LeftHandIndex4
											{
												OFFSET 5.482605 0.000000 0.000000
												CHANNELS 3 Xrotation Yrotation Zrotation
												End Site
												{
													OFFSET -1.427902 5.233032 0.797164
												}
											}
										}
									}
								}
								JOINT mixamorig:LeftHandRing1
								{
									OFFSET 22.299240 0.021149 -3.964172
									CHANNELS 3 Xrotation Yrotation Zrotation
									JOINT mixamorig:LeftHandRing2
									{
										OFFSET 6.321869 0.000000 0.000000
										CHANNELS 3 Xrotation Yrotation Zrotation
										JOINT mixamorig:LeftHandRing3
										{
											OFFSET 5.899796 0.000000 0.000000
											CHANNELS 3 Xrotation Yrotation Zrotation
											JOINT mixamorig:LeftHandRing4
											{
												OFFSET 6.517899 0.000000 0.000000
												CHANNELS 3 Xrotation Yrotation Zrotation
												End Site
												{
													OFFSET -1.637299 6.232208 0.980890
												}
											}
										}
									}
								}
								JOINT mixamorig:LeftHandPinky1
								{
									OFFSET 20.463791 -0.302338 -8.562233
									CHANNELS 3 Xrotation Yrotation Zrotation
									JOINT mixamorig:LeftHandPinky2
									{
										OFFSET 6.908646 0.000000 0.000000
										CHANNELS 3 Xrotation Yrotation Zrotation
										JOINT mixamorig:LeftHandPinky3
										{
											OFFSET 4.622849 0.000000 0.000000
											CHANNELS 3 Xrotation Yrotation Zrotation
											JOINT mixamorig:LeftHandPinky4
											{
												OFFSET 5.216080 0.000000 0.000000
												CHANNELS 3 Xrotation Yrotation Zrotation
												End Site
												{
													OFFSET -0.606308 5.116241 0.814926
												}
											}
										}
									}
								}
							}
						}
					}
				}
				JOINT mixamorig:RightShoulder
				{
					OFFSET -12.001300 18.284088 1.348900
					CHANNELS 3 Xrotation Yrotation Zrotation
					JOINT mixamorig:RightArm
					{
						OFFSET -25.308500 -0.751312 -5.164599
						CHANNELS 3 Xrotation Yrotation Zrotation
						JOINT mixamorig:RightForeArm
						{
							OFFSET -54.684429 0.000000 0.000000
							CHANNELS 3 Xrotation Yrotation Zrotation
							JOINT mixamorig:RightHand
							{
								OFFSET -55.150291 0.000000 0.000000
								CHANNELS 3 Xrotation Yrotation Zrotation
								JOINT mixamorig:RightHandMiddle1
								{
									OFFSET -23.317566 0.000000 0.000000
									CHANNELS 3 Xrotation Yrotation Zrotation
									JOINT mixamorig:RightHandMiddle2
									{
										OFFSET -6.378403 0.000000 0.000000
										CHANNELS 3 Xrotation Yrotation Zrotation
										JOINT mixamorig:RightHandMiddle3
										{
											OFFSET -6.148193 0.000000 0.000000
											CHANNELS 3 Xrotation Yrotation Zrotation
											JOINT mixamorig:RightHandMiddle4
											{
												OFFSET -6.583389 0.000000 0.000000
												CHANNELS 3 Xrotation Yrotation Zrotation
												End Site
												{
													OFFSET 1.171692 6.395905 1.029786
												}
											}
										}
									}
								}
								JOINT mixamorig:RightHandThumb1
								{
									OFFSET -7.190521 -3.860474 5.435846
									CHANNELS 3 Xrotation Yrotation Zrotation
									JOINT mixamorig:RightHandThumb2
									{
										OFFSET -6.567429 -3.791718 3.791708
										CHANNELS 3 Xrotation Yrotation Zrotation
										JOINT mixamorig:RightHandThumb3
										{
											OFFSET -6.062469 -3.500153 3.500166
											CHANNELS 3 Xrotation Yrotation Zrotation
											JOINT mixamorig:RightHandThumb4
											{
												OFFSET -4.792618 -2.767029 2.767022
												CHANNELS 3 Xrotation Yrotation Zrotation
												End Site
												{
													OFFSET -0.100327 6.053253 1.276754
												}
											}
										}
									}
								}
								JOINT mixamorig:RightHandIndex1
								{
									OFFSET -23.048981 -0.310791 4.992554
									CHANNELS 3 Xrotation Yrotation Zrotation
									JOINT mixamorig:RightHandIndex2
									{
										OFFSET -6.227539 0.000000 0.000000
										CHANNELS 3 Xrotation Yrotation Zrotation
										JOINT mixamorig:RightHandIndex3
										{
											OFFSET -6.095047 0.000000 0.000000
											CHANNELS 3 Xrotation Yrotation Zrotation
											JOINT mixamorig:RightHandIndex4
											{
												OFFSET -5.484772 0.000000 0.000000
												CHANNELS 3 Xrotation Yrotation Zrotation
												End Site
												{
													OFFSET 1.420593 5.237305 0.797056
												}
											}
										}
									}
								}
								JOINT mixamorig:RightHandRing1
								{
									OFFSET -22.246323 0.020569 -3.963762
									CHANNELS 3 Xrotation Yrotation Zrotation
									JOINT mixamorig:RightHandRing2
									{
										OFFSET -6.322128 0.000000 0.000000
										CHANNELS 3 Xrotation Yrotation Zrotation
										JOINT mixamorig:RightHandRing3
										{
											OFFSET -5.900024 0.000000 0.000000
											CHANNELS 3 Xrotation Yrotation Zrotation
											JOINT mixamorig:RightHandRing4
											{
												OFFSET -6.518356 0.000000 0.000000
												CHANNELS 3 Xrotation Yrotation Zrotation
												End Site
												{
													OFFSET 1.636398 6.232697 0.982186
												}
											}
										}
									}
								}
								JOINT mixamorig:RightHandPinky1
								{
									OFFSET -20.411011 -0.303314 -8.561701
									CHANNELS 3 Xrotation Yrotation Zrotation
									JOINT mixamorig:RightHandPinky2
									{
										OFFSET -6.907349 0.000000 0.000000
										CHANNELS 3 Xrotation Yrotation Zrotation
										JOINT mixamorig:RightHandPinky3
										{
											OFFSET -4.623840 0.000000 0.000000
											CHANNELS 3 Xrotation Yrotation Zrotation
											JOINT mixamorig:RightHandPinky4
											{
												OFFSET -5.218353 0.000000 0.000000
												CHANNELS 3 Xrotation Yrotation Zrotation
												End Site
												{
													OFFSET 0.602097 5.118835 0.816273
												}
											}
										}
									}
								}
							}
						}
					}
				}
			}
		}
	}
	JOINT mixamorig:LeftUpLeg
	{
		OFFSET 18.168400 -13.561905 -0.039000
		CHANNELS 3 Xrotation Yrotation Zrotation
		JOINT mixamorig:LeftLeg
		{
			OFFSET 0.577358 -80.825211 -3.695000
			CHANNELS 3 Xrotation Yrotation Zrotation
			JOINT mixamorig:LeftFoot
			{
				OFFSET -0.577356 -83.370262 -6.520700
				CHANNELS 3 Xrotation Yrotation Zrotation
				JOINT mixamorig:LeftToeBase
				{
					OFFSET 0.750401 -20.798306 25.135401
					CHANNELS 3 Xrotation Yrotation Zrotation
					JOINT mixamorig:LeftToe_End
					{
						OFFSET -0.000500 0.001200 19.917799
						CHANNELS 3 Xrotation Yrotation Zrotation
						End Site
						{
							OFFSET 0.000000 19.917805 0.000000
						}
					}
				}
			}
		}
	}
	JOINT mixamorig:RightUpLeg
	{
		OFFSET -18.162500 -13.585098 -0.041000
		CHANNELS 3 Xrotation Yrotation Zrotation
		JOINT mixamorig:RightLeg
		{
			OFFSET -0.595024 -80.945297 -3.631900
			CHANNELS 3 Xrotation Yrotation Zrotation
			JOINT mixamorig:RightFoot
			{
				OFFSET 0.595024 -83.218193 -6.561200
				CHANNELS 3 Xrotation Yrotation Zrotation
				JOINT mixamorig:RightToeBase
				{
					OFFSET -0.753601 -20.807106 25.115000
					CHANNELS 3 Xrotation Yrotation Zrotation
					JOINT mixamorig:RightToe_End
					{
						OFFSET 0.000299 0.001700 19.918200
						CHANNELS 3 Xrotation Yrotation Zrotation
						End Site
						{
							OFFSET 0.000000 19.918203 0.000000
						}
					}
				}
			}
		}
	}
}
MOTION
Frames: 6
Frame Time: 0.033333
0.100314 196.433075 0.434216 -5.674373 -4.933801 0.156469 2.198319 -1.330620 -1.778964 2.304418 -0.198971 -0.773861 2.303152 -0.194863 -0.778759 5.735796 0.466268 2.461225 -15.087804 3.423413 2.590037 -0.000000 -0.000000 -0.000000 -0.000000 -0.000000 -0.000000 -0.000000 -0.000000 -0.000000 0.775916 -5.920816 -1.015462 -11.470978 10.437426 -75.614121 0.000003 -5.162914 0.000029 -4.229438 3.331656 -15.886277 0.562907 2.754793 -21.117459 1.189391 3.873451 -34.128430 0.089627 1.109589 -9.235558 -0.000000 -0.000000 0.000000 9.331050 11.907573 5.928202 -12.541389 11.825478 4.136063 1.774480 11.141330 2.893262 0.000001 -0.000002 -0.000000 -0.089598 1.287927 -23.612773 0.748977 3.127963 -26.925369 0.081325 1.057285 -8.796590 -0.000002 -0.000000 0.000000 2.051945 5.939892 -24.737359 0.424495 2.384522 -20.185383 0.050423 0.833491 -6.923946 0.000000 -0.000000 -0.000002 3.935619 8.101725 -32.640979 0.373523 -1.821547 -19.361290 0.034504 0.689888 -5.726431 0.000000 0.000000 -0.000001 0.626897 5.476670 7.507522 5.995295 7.865947 70.409927 -0.000009 23.764108 0.000036 -12.893904 -3.370447 9.988803 -0.388678 0.069563 18.014091 0.810518 -3.263002 27.892753 0.165224 -1.356962 11.259687 0.000002 0.000001 -0.000001 4.903077 -10.085538 -3.216059 2.892707 -7.159685 -13.618057 9.448581 0.989642 -3.851447 -0.000002 -0.000000 0.000000 -1.651280 5.306532 15.136920 0.330904 -2.123401 17.712719 0.216673 -1.725602 14.312339 -0.000000 0.000001 -0.000004 0.890159 -3.830378 18.226157 0.871386 -3.375292 28.943910 -0.012387 -0.920479 7.497074 0.000000 -0.000001 0.000004 0.612848 -2.852093 26.244085 0.584503 -2.795185 23.617710 0.073343 -1.009279 8.311764 0.000002 -0.000001 -0.000004 -4.572443 13.948137 5.750272 23.693660 -4.378325 0.992896 -13.815116 0.571525 -3.759014 -0.000090 -0.000001 -0.000001 -0.000000 0.000000 0.000000 -6.220523 -8.955338 -9.304342 23.580006 1.426469 -1.051012 -11.928723 -1.023556 7.375464 -0.000102 0.000003 -0.000001 0.000000 -0.000001 0.000000 
0.097979 196.427887 0.441799 -5.658498 -4.933458 0.154157 2.227643 -1.335255 -1.781443 2.304845 -0.199421 -0.769511 2.303588 -0.195324 -0.774417 5.737692 0.467646 2.461277 -15.149809 3.413057 2.618531 -0.000000 0.000000 0.000000 -0.000000 0.000000 0.000000 -0.000000 0.000000 0.000000 0.778229 -5.950442 -1.012809 -11.449148 10.456567 -75.621348 -0.000006 -5.200666 -0.000029 -4.259903 3.331232 -15.888707 0.562555 2.753748 -21.099822 1.189453 3.873543 -34.129414 0.089670 1.109851 -9.237741 -0.000001 0.000000 -0.000000 9.349906 11.865131 5.920595 -12.531326 11.801822 4.134541 1.775304 11.141433 2.894095 0.000002 0.000002 0.000000 -0.092143 1.281760 -23.606858 0.748370 3.126766 -26.914202 0.081344 1.057423 -8.797707 -0.000002 0.000001 0.000001 2.052215 5.939983 -24.739710 0.424698 2.385083 -20.190331 0.050440 0.833617 -6.924984 0.000000 -0.000001 -0.000002 3.936457 8.101269 -32.652122 0.373616 -1.821271 -19.363725 0.034506 0.689910 -5.726643 -0.000001 0.000001 -0.000001 0.627067 5.492325 7.514667 5.996317 7.811616 70.394272 0.000002 23.791393 0.000000 -12.912004 -3.375454 9.977440 -0.387287 0.063633 18.023363 0.810612 -3.263192 27.894450 0.165099 -1.356699 11.257342 0.000003 0.000000 -0.000001 4.907778 -10.086810 -3.213101 2.896309 -7.161671 -13.617726 9.443427 0.987133 -3.860538 0.000002 -0.000001 -0.000001 -1.651350 5.296509 15.154279 0.330901 -2.123422 17.712885 0.216690 -1.725682 14.312959 -0.000000 0.000002 -0.000001 0.886773 -3.818190 18.236279 0.871566 -3.375619 28.947014 -0.011760 -0.920294 7.496184 -0.000001 -0.000000 0.000001 0.608014 -2.841510 26.252797 0.584579 -2.795350 23.619139 0.073310 -1.009121 8.310470 0.000001 0.000000 0.000000 -4.597983 13.945418 5.756939 23.713594 -4.375461 0.993203 -13.826271 0.571920 -3.760111 -0.000092 0.000002 0.000002 0.000000 0.000000 0.000000 -6.238078 -8.938982 -9.291348 23.593550 1.408183 -1.061282 -11.937157 -1.025233 7.382886 -0.000101 -0.000003 -0.000001 -0.000000 -0.000001 -0.000000 
0.098763 196.421585 0.447256 -5.638241 -4.934159 0.153635 2.259588 -1.340920 -1.783434 2.302404 -0.199978 -0.766804 2.301151 -0.195922 -0.771715 5.743630 0.469750 2.456978 -15.214084 3.406106 2.638635 -0.000000 -0.000000 -0.000000 -0.000000 -0.000000 -0.000000 -0.000000 -0.000000 -0.000000 0.779978 -5.973453 -1.013103 -11.443118 10.492911 -75.624339 0.000005 -5.220339 0.000036 -4.252275 3.323849 -15.891495 0.562398 2.753008 -21.096644 1.189494 3.873606 -34.130032 0.089677 1.109921 -9.238346 -0.000001 0.000000 0.000000 9.370630 11.839840 5.925129 -12.520903 11.778525 4.131342 1.774980 11.141705 2.896199 0.000002 0.000002 0.000001 -0.094167 1.277012 -23.605762 0.747690 3.125425 -26.901764 0.081354 1.057497 -8.798327 -0.000000 -0.000000 -0.000003 2.052135 5.939015 -24.743098 0.424918 2.385655 -20.195416 0.050451 0.833711 -6.925772 -0.000000 -0.000001 0.000002 3.936858 8.099839 -32.664454 0.373760 -1.820867 -19.367246 0.034518 0.690031 -5.727625 -0.000002 0.000001 -0.000001 0.627256 5.507945 7.520660 5.984841 7.757573 70.376282 0.000002 23.803909 0.000005 -12.928876 -3.374702 9.975629 -0.385239 0.055694 18.032628 0.810764 -3.263469 27.897040 0.164967 -1.356627 11.256610 0.000001 0.000001 0.000003 4.912129 -10.085837 -3.208075 2.897532 -7.173083 -13.618986 9.439334 0.985659 -3.867847 0.000000 0.000001 0.000003 -1.649247 5.284387 15.157385 0.331018 -2.123764 17.715805 0.216816 -1.726178 14.317231 0.000001 -0.000000 -0.000002 0.883834 -3.807571 18.246207 0.871559 -3.375619 28.946912 -0.011163 -0.920370 7.497393 0.000001 0.000000 0.000001 0.601730 -2.828134 26.262252 0.584608 -2.795425 23.619774 0.073291 -1.008927 8.308864 -0.000001 -0.000000 -0.000002 -4.629544 13.940129 5.760561 23.736593 -4.368629 0.993368 -13.838148 0.572178 -3.760444 -0.000095 0.000003 -0.000002 0.000000 -0.000000 0.000000 -6.264440 -8.924648 -9.284001 23.611189 1.395537 -1.068149 -11.946172 -1.026892 7.388641 -0.000099 -0.000005 -0.000001 0.000000 -0.000001 -0.000000 
0.103882 196.416763 0.451649 -5.615450 -4.934438 0.155765 2.296131 -1.348357 -1.784977 2.298768 -0.200766 -0.765991 2.297511 -0.196759 -0.770907 5.754378 0.469783 2.452102 -15.281003 3.401244 2.628708 0.000000 0.000000 -0.000000 0.000000 0.000000 -0.000000 0.000000 0.000000 -0.000000 0.781120 -5.992914 -1.028462 -11.447808 10.541649 -75.610980 -0.000004 -5.233992 -0.000033 -4.228060 3.319273 -15.898923 0.563063 2.754170 -21.110269 1.189659 3.873843 -34.132412 0.089651 1.109762 -9.237004 0.000001 0.000001 0.000001 9.385144 11.859946 5.950476 -12.514658 11.767472 4.126556 1.771782 11.142294 2.901906 0.000000 0.000002 0.000000 -0.094688 1.276285 -23.614886 0.747406 3.124863 -26.896465 0.081353 1.057497 -8.798336 -0.000001 0.000000 0.000001 2.051432 5.936228 -24.748938 0.425093 2.386156 -20.199808 0.050450 0.833719 -6.925860 -0.000001 -0.000001 -0.000000 3.936385 8.097351 -32.673743 0.373924 -1.820407 -19.371328 0.034529 0.690178 -5.728857 -0.000002 0.000000 -0.000000 0.627423 5.527759 7.532021 5.967187 7.693750 70.348073 -0.000010 23.822785 0.000008 -12.948274 -3.377977 9.978014 -0.382857 0.047262 18.037930 0.810954 -3.263825 27.900351 0.164944 -1.357087 11.260259 -0.000001 0.000000 0.000001 4.920254 -10.078324 -3.198836 2.896596 -7.194464 -13.622087 9.436530 0.985658 -3.872179 0.000001 0.000001 0.000002 -1.645043 5.276964 15.134395 0.331249 -2.124508 17.722239 0.217143 -1.727432 14.327872 0.000001 0.000000 -0.000004 0.883876 -3.807345 18.249745 0.871426 -3.375373 28.944644 -0.011032 -0.920922 7.501907 -0.000001 0.000001 0.000004 0.596849 -2.818248 26.267659 0.584490 -2.795150 23.617334 0.073296 -1.008980 8.309297 0.000000 0.000001 0.000005 -4.660515 13.932315 5.758151 23.754553 -4.356082 0.993828 -13.847006 0.572056 -3.760244 -0.000090 0.000002 0.000000 -0.000000 -0.000000 -0.000000 -6.294095 -8.912291 -9.281658 23.627014 1.385017 -1.074105 -11.953284 -1.028626 7.395147 -0.000100 0.000003 0.000001 0.000000 0.000000 -0.000000 
0.112861 196.413879 0.456509 -5.593485 -4.935218 0.158139 2.338533 -1.356126 -1.786326 2.296364 -0.201599 -0.766703 2.295099 -0.197662 -0.771622 5.768598 0.468064 2.451980 -15.349523 3.403799 2.591541 0.000000 0.000000 -0.000000 0.000000 0.000000 -0.000000 0.000000 0.000000 -0.000000 0.782619 -6.020165 -1.054056 -11.448863 10.590465 -75.585360 0.000004 -5.258809 -0.000004 -4.227431 3.326167 -15.910985 0.565212 2.759009 -21.135940 1.190024 3.874386 -34.137856 0.089609 1.109483 -9.234640 0.000001 0.000000 -0.000000 9.385332 11.926570 5.989931 -12.517352 11.778740 4.121918 1.765814 11.143281 2.910660 0.000001 0.000001 0.000000 -0.093013 1.281371 -23.636457 0.747727 3.125499 -26.902426 0.081363 1.057536 -8.798675 -0.000000 0.000000 0.000004 2.050627 5.932837 -24.757723 0.425168 2.386343 -20.201483 0.050446 0.833680 -6.925575 -0.000000 0.000000 -0.000001 3.934761 8.094231 -32.675249 0.374037 -1.820101 -19.373982 0.034535 0.690235 -5.729333 -0.000001 0.000000 0.000003 0.627578 5.552411 7.548748 5.956563 7.619218 70.307672 0.000002 23.877373 0.000038 -12.985929 -3.400455 9.971356 -0.380736 0.040805 18.037551 0.811191 -3.264277 27.904610 0.165085 -1.358258 11.269930 0.000002 0.000001 0.000002 4.935570 -10.062082 -3.185303 2.892213 -7.220761 -13.626466 9.435103 0.987073 -3.872701 0.000002 -0.000000 0.000003 -1.641410 5.282727 15.091499 0.331547 -2.125425 17.730118 0.217681 -1.729559 14.345871 0.000001 -0.000001 -0.000004 0.889210 -3.825350 18.241839 0.871311 -3.375164 28.942694 -0.011736 -0.922043 7.510240 -0.000000 -0.000000 0.000004 0.596761 -2.818962 26.263122 0.584166 -2.794396 23.610584 0.073372 -1.009495 8.313594 -0.000001 -0.000000 -0.000002 -4.687123 13.923559 5.752202 23.767219 -4.338478 0.995113 -13.853535 0.571699 -3.760151 -0.000084 0.000002 0.000000 -0.000000 0.000000 0.000000 -6.318605 -8.897556 -9.277057 23.634726 1.370796 -1.084992 -11.956106 -1.030689 7.406063 -0.000103 -0.000010 -0.000003 0.000000 -0.000001 0.000000 
0.124446 196.410995 0.461475 -5.570978 -4.936521 0.159303 2.387581 -1.361631 -1.788592 2.295398 -0.202137 -0.767717 2.294128 -0.198259 -0.772629 5.784179 0.466687 2.455897 -15.422574 3.414262 2.548686 0.000001 -0.000000 0.000000 0.000001 -0.000000 0.000000 0.000001 -0.000000 0.000000 0.784897 -6.052744 -1.062718 -11.454907 10.629477 -75.569001 -0.000002 -5.259700 -0.000033 -4.242097 3.322233 -15.925044 0.569506 2.769489 -21.168833 1.190538 3.875135 -34.145420 0.089572 1.109263 -9.232781 0.000002 0.000000 0.000001 9.363141 12.020235 6.026962 -12.531252 11.822491 4.119819 1.756545 11.144436 2.923611 -0.000001 -0.000002 0.000000 -0.088663 1.293591 -23.671040 0.748616 3.127242 -26.918674 0.081412 1.057864 -8.801409 -0.000001 0.000000 -0.000000 2.050744 5.931313 -24.768878 0.424987 2.385851 -20.197124 0.050448 0.833700 -6.925695 0.000000 -0.000001 0.000002 3.931520 8.090671 -32.664181 0.374005 -1.820146 -19.373546 0.034527 0.690148 -5.728610 -0.000002 0.000001 -0.000001 0.627648 5.569665 7.562317 5.962620 7.558074 70.258003 -0.000011 23.973064 0.000043 -13.047983 -3.436489 9.949724 -0.381228 0.046348 18.014772 0.811383 -3.264649 27.908004 0.165537 -1.360306 11.287186 0.000002 -0.000000 0.000006 4.957555 -10.041728 -3.174815 2.882268 -7.243299 -13.631121 9.434183 0.988838 -3.870944 0.000000 0.000000 0.000001 -1.640987 5.317083 15.023903 0.331748 -2.126041 17.735479 0.218441 -1.732521 14.370935 0.000000 0.000001 -0.000004 0.904114 -3.877032 18.205519 0.871211 -3.374968 28.940878 -0.014055 -0.924124 7.524639 -0.000001 0.000001 0.000003 0.611488 -2.851098 26.231394 0.583339 -2.792517 23.593683 0.073553 -1.010748 8.323940 0.000002 -0.000001 0.000001 -4.714561 13.914464 5.746392 23.780420 -4.321755 0.997058 -13.860566 0.571406 -3.759422 -0.000094 0.000003 0.000001 -0.000000 -0.000000 0.000000 -6.342964 -8.882252 -9.271411 23.640919 1.357369 -1.096748 -11.957980 -1.032838 7.418086 -0.000102 -0.000001 -0.000001 0.000000 -0.000001 -0.000000 
